<?xml version="1.0" standalone="no"?>
<!DOCTYPE svg PUBLIC "-//W3C//DTD SVG 20010904//EN"
 "http://www.w3.org/TR/2001/REC-SVG-20010904/DTD/svg10.dtd">
<svg version="1.0" xmlns="http://www.w3.org/2000/svg"
 width="512.000000pt" height="512.000000pt" viewBox="0 0 512.000000 512.000000"
 preserveAspectRatio="xMidYMid meet">

<g transform="translate(0.000000,512.000000) scale(0.100000,-0.100000)"
fill="#000000" stroke="none">
<path d="M107 4396 c-48 -17 -71 -38 -91 -81 -13 -27 -16 -75 -16 -264 0 -261
4 -280 66 -327 l37 -29 253 0 c241 0 254 1 281 21 57 42 73 79 73 169 l0 83
69 4 c85 4 111 23 111 78 0 51 -20 64 -104 70 l-71 5 -5 92 c-6 102 -20 132
-81 168 -31 18 -55 20 -259 22 -172 2 -234 0 -263 -11z m453 -346 l0 -210
-205 0 -205 0 0 203 c0 112 3 207 7 210 3 4 96 7 205 7 l198 0 0 -210z"/>
<path d="M1122 4104 c-16 -11 -22 -25 -22 -53 0 -55 25 -73 110 -80 l71 -7
179 -179 c99 -99 180 -183 180 -187 0 -4 -25 -35 -56 -70 -105 -118 -219 -313
-277 -473 -34 -95 -66 -243 -75 -340 l-7 -80 -255 0 -255 0 -5 92 c-5 98 -17
125 -74 167 -26 20 -43 21 -264 24 -230 3 -238 2 -281 -20 -86 -44 -86 -44
-86 -338 0 -294 0 -294 86 -338 43 -22 51 -23 281 -20 222 3 238 4 265 24 57
43 73 79 73 170 l0 84 260 0 260 0 0 -44 c0 -61 25 -195 55 -301 51 -176 176
-403 299 -543 31 -35 56 -67 56 -70 0 -4 -82 -90 -183 -190 l-183 -182 -282 0
-282 0 0 84 c0 91 -16 127 -73 170 -27 20 -40 21 -281 21 l-253 0 -37 -29
c-64 -48 -67 -67 -64 -339 3 -235 4 -243 26 -275 46 -64 60 -67 327 -67 222 0
243 1 274 20 61 36 75 66 81 168 l5 92 300 5 c228 4 306 8 325 19 14 7 113
101 221 208 l196 194 29 -24 c158 -130 386 -237 615 -289 90 -20 131 -23 304
-23 223 0 292 10 471 70 219 73 410 191 574 355 197 197 328 424 391 675 l21
85 144 0 144 0 0 -50 c0 -56 20 -104 49 -120 11 -5 37 -10 59 -10 35 0 60 17
278 190 131 104 249 204 262 221 44 63 26 108 -76 190 -89 71 -114 79 -150 52
-51 -38 -42 -94 23 -143 25 -19 44 -37 43 -41 -2 -4 -77 -67 -168 -139 l-165
-132 -5 45 c-3 25 -14 55 -24 66 -19 21 -27 21 -470 21 l-451 0 0 140 0 140
452 0 452 0 20 26 c13 17 21 41 21 65 0 38 1 39 35 39 60 0 94 57 65 110 -5
10 -32 34 -59 54 -103 76 -191 33 -191 -94 l0 -50 -143 0 -144 0 -25 98 c-124
472 -503 871 -968 1020 -180 57 -246 67 -465 67 -223 0 -292 -10 -472 -70
-154 -52 -338 -151 -447 -242 l-29 -24 -196 195 c-123 123 -210 201 -233 210
-50 21 -176 21 -206 0z m1508 -404 l0 -189 -37 -6 c-215 -34 -388 -116 -536
-255 -119 -111 -205 -246 -257 -404 -31 -94 -31 -143 -1 -167 55 -45 109 -9
135 91 39 150 144 310 271 413 71 58 215 130 305 154 48 13 102 18 205 17 131
0 146 -2 235 -33 136 -46 220 -99 325 -205 73 -73 100 -109 138 -183 69 -134
90 -220 90 -373 0 -153 -21 -239 -90 -373 -38 -74 -65 -110 -138 -183 -105
-106 -189 -159 -325 -205 -89 -31 -104 -33 -235 -33 -163 -1 -247 18 -375 85
-198 102 -352 293 -406 499 -26 100 -80 136 -135 91 -30 -24 -30 -73 1 -167
106 -322 346 -545 690 -640 98 -27 346 -25 453 4 100 27 232 89 312 147 35 25
67 45 72 45 5 0 67 -58 138 -130 l129 -129 -24 -27 c-39 -41 -208 -150 -302
-193 -106 -49 -225 -86 -348 -107 -141 -24 -389 -15 -526 19 -240 61 -436 171
-615 344 -200 194 -321 414 -381 696 -16 80 -21 136 -21 257 0 174 19 291 74
447 136 384 460 699 849 823 90 29 227 56 293 59 l37 1 0 -190z m296 175 c423
-73 783 -340 972 -720 39 -79 112 -274 112 -300 0 -3 -89 -5 -198 -5 l-198 0
-32 78 c-126 308 -411 523 -764 577 l-38 6 0 189 0 190 29 0 c15 0 68 -7 117
-15z m-2366 -1315 l0 -210 -205 0 -205 0 0 210 0 210 205 0 205 0 0 -210z
m3429 -362 c-26 -95 -82 -225 -136 -316 -44 -75 -125 -186 -144 -198 -6 -4
-70 52 -144 126 l-133 133 38 51 c45 60 100 161 125 229 l18 47 198 0 198 0
-20 -72z m-3429 -1128 l0 -210 -202 2 -203 3 -3 208 -2 207 205 0 205 0 0
-210z"/>
<path d="M2868 2643 l-248 -247 -153 152 c-128 127 -158 152 -183 152 -62 0
-98 -55 -70 -108 22 -40 347 -359 379 -371 16 -7 36 -7 50 -2 12 5 145 132
295 283 256 258 272 276 272 310 0 40 -35 78 -73 78 -14 0 -105 -84 -269 -247z"/>
</g>
</svg>
