<?xml version="1.0" standalone="no"?>
<!DOCTYPE svg PUBLIC "-//W3C//DTD SVG 20010904//EN"
 "http://www.w3.org/TR/2001/REC-SVG-20010904/DTD/svg10.dtd">
<svg version="1.0" xmlns="http://www.w3.org/2000/svg"
 width="512.000000pt" height="512.000000pt" viewBox="0 0 512.000000 512.000000"
 preserveAspectRatio="xMidYMid meet">

<g transform="translate(0.000000,512.000000) scale(0.100000,-0.100000)"
fill="#000000" stroke="none">
<path d="M160 5107 c-49 -16 -133 -102 -148 -153 -17 -57 -17 -571 0 -628 16
-55 99 -138 154 -154 55 -16 577 -17 623 -1 l33 12 212 -212 c189 -188 216
-211 244 -211 44 0 82 38 82 82 0 28 -23 55 -211 244 l-212 212 12 33 c16 45
15 568 -1 621 -6 22 -31 62 -55 88 -69 77 -88 80 -417 79 -174 -1 -294 -5
-316 -12z m615 -172 l25 -24 0 -271 0 -271 -25 -24 -24 -25 -271 0 -271 0 -24
25 -25 24 0 271 0 271 25 24 24 25 271 0 271 0 24 -25z"/>
<path d="M4320 5107 c-49 -16 -133 -102 -148 -153 -16 -55 -17 -577 -1 -623
l12 -33 -212 -212 c-188 -189 -211 -216 -211 -244 0 -44 38 -82 82 -82 28 0
55 23 244 211 l212 212 33 -12 c21 -7 129 -11 309 -11 325 0 345 4 413 80 24
26 49 66 55 88 17 54 17 570 0 624 -6 22 -31 62 -55 88 -69 77 -88 80 -417 79
-174 -1 -294 -5 -316 -12z m615 -172 l25 -24 0 -271 0 -271 -25 -24 -24 -25
-271 0 -271 0 -24 25 -25 24 0 271 0 271 25 24 24 25 271 0 271 0 24 -25z"/>
<path d="M2320 5027 c-49 -16 -133 -102 -148 -153 -16 -56 -16 -412 0 -468 16
-55 99 -138 154 -154 23 -7 67 -12 98 -12 l56 0 0 -215 c0 -216 0 -216 25
-240 32 -33 78 -33 110 0 25 24 25 24 25 240 l0 215 58 0 c87 0 144 23 195 80
24 26 49 66 55 88 16 53 16 411 0 464 -6 22 -31 62 -55 88 -66 73 -96 80 -337
79 -116 -1 -216 -6 -236 -12z m455 -172 c25 -24 25 -26 25 -215 0 -189 0 -191
-25 -215 -24 -25 -26 -25 -215 -25 -257 0 -240 -17 -240 240 0 257 -17 240
240 240 189 0 191 0 215 -25z"/>
<path d="M1455 3586 c-41 -18 -83 -69 -90 -109 -3 -18 -5 -190 -3 -384 3 -337
4 -353 24 -379 39 -53 70 -68 144 -72 l70 -4 0 -78 0 -78 -70 -4 c-74 -4 -105
-19 -144 -72 -20 -27 -21 -39 -21 -406 0 -367 1 -379 21 -406 11 -15 33 -37
48 -48 27 -21 32 -21 1126 -21 1094 0 1099 0 1126 21 15 11 37 33 48 48 20 27
21 39 21 406 0 367 -1 379 -21 406 -39 53 -70 68 -144 72 l-70 4 0 78 0 78 70
4 c74 4 105 19 144 72 20 27 21 39 21 406 0 367 -1 379 -21 406 -11 15 -33 37
-48 48 -27 21 -34 21 -1114 23 -888 2 -1093 0 -1117 -11z m2145 -466 l0 -320
-1040 0 -1040 0 0 320 0 320 1040 0 1040 0 0 -320z m-240 -560 l0 -80 -800 0
-800 0 0 80 0 80 800 0 800 0 0 -80z m240 -560 l0 -320 -1040 0 -1040 0 0 320
0 320 1040 0 1040 0 0 -320z"/>
<path d="M1785 3175 c-16 -15 -25 -36 -25 -55 0 -19 9 -40 25 -55 l24 -25 271
0 271 0 24 25 c16 15 25 36 25 55 0 19 -9 40 -25 55 l-24 25 -271 0 -271 0
-24 -25z"/>
<path d="M2585 3175 c-16 -15 -25 -36 -25 -55 0 -19 9 -40 25 -55 15 -16 36
-25 55 -25 19 0 40 9 55 25 16 15 25 36 25 55 0 19 -9 40 -25 55 -15 16 -36
25 -55 25 -19 0 -40 -9 -55 -25z"/>
<path d="M2905 3175 c-16 -15 -25 -36 -25 -55 0 -19 9 -40 25 -55 15 -16 36
-25 55 -25 19 0 40 9 55 25 16 15 25 36 25 55 0 19 -9 40 -25 55 -15 16 -36
25 -55 25 -19 0 -40 -9 -55 -25z"/>
<path d="M1785 2055 c-16 -15 -25 -36 -25 -55 0 -19 9 -40 25 -55 l24 -25 271
0 271 0 24 25 c16 15 25 36 25 55 0 19 -9 40 -25 55 l-24 25 -271 0 -271 0
-24 -25z"/>
<path d="M2585 2055 c-50 -49 -15 -135 55 -135 41 0 80 39 80 80 0 41 -39 80
-80 80 -19 0 -40 -9 -55 -25z"/>
<path d="M2905 2055 c-50 -49 -15 -135 55 -135 41 0 80 39 80 80 0 41 -39 80
-80 80 -19 0 -40 -9 -55 -25z"/>
<path d="M240 2947 c-49 -16 -133 -102 -148 -153 -16 -56 -16 -412 0 -468 16
-55 99 -138 154 -154 26 -8 112 -12 236 -12 234 0 266 8 331 80 49 55 67 103
67 184 l0 56 135 0 c131 0 137 1 160 25 33 32 33 78 0 110 -23 24 -29 25 -160
25 l-135 0 0 56 c0 81 -18 129 -67 184 -66 73 -96 80 -337 79 -116 -1 -216 -6
-236 -12z m455 -172 c25 -24 25 -26 25 -215 0 -257 17 -240 -240 -240 -257 0
-240 -17 -240 240 0 257 -17 240 240 240 189 0 191 0 215 -25z"/>
<path d="M4400 2947 c-49 -16 -133 -102 -148 -153 -7 -23 -12 -67 -12 -98 l0
-56 -135 0 c-131 0 -137 -1 -160 -25 -33 -32 -33 -78 0 -110 23 -24 29 -25
160 -25 l135 0 0 -56 c0 -31 5 -75 12 -98 16 -55 99 -138 154 -154 65 -19 418
-16 477 4 57 19 128 93 145 152 16 53 16 411 0 464 -6 22 -31 62 -55 88 -66
73 -96 80 -337 79 -116 -1 -216 -6 -236 -12z m455 -172 c25 -24 25 -26 25
-215 0 -189 0 -191 -25 -215 -24 -25 -26 -25 -215 -25 -257 0 -240 -17 -240
240 0 257 -17 240 240 240 189 0 191 0 215 -25z"/>
<path d="M1034 1149 l-212 -212 -33 12 c-46 16 -568 15 -623 -1 -55 -16 -138
-99 -154 -154 -17 -57 -17 -571 0 -628 16 -55 99 -138 154 -154 28 -8 130 -12
316 -12 323 0 343 4 411 80 24 26 49 66 55 88 16 53 17 576 1 621 l-12 33 212
212 c188 189 211 216 211 244 0 22 -9 41 -25 57 -16 16 -35 25 -57 25 -28 0
-55 -23 -244 -211z m-259 -374 l25 -24 0 -271 0 -271 -25 -24 -24 -25 -271 0
-271 0 -24 25 -25 24 0 271 0 271 25 24 24 25 271 0 271 0 24 -25z"/>
<path d="M2505 1335 c-25 -24 -25 -24 -25 -240 l0 -215 -56 0 c-31 0 -75 -5
-98 -12 -55 -16 -138 -99 -154 -154 -16 -56 -16 -412 0 -468 16 -55 99 -138
154 -154 65 -19 418 -16 477 4 57 19 128 93 145 152 16 53 16 411 0 464 -6 22
-31 62 -55 88 -51 57 -108 80 -195 80 l-58 0 0 215 c0 216 0 216 -25 240 -15
16 -36 25 -55 25 -19 0 -40 -9 -55 -25z m270 -640 c25 -24 25 -26 25 -215 0
-257 17 -240 -240 -240 -257 0 -240 -17 -240 240 0 189 0 191 25 215 24 25 26
25 215 25 189 0 191 0 215 -25z"/>
<path d="M3785 1335 c-16 -16 -25 -35 -25 -57 0 -28 23 -55 211 -244 l212
-212 -12 -33 c-16 -46 -15 -568 1 -623 16 -55 99 -138 154 -154 28 -8 130 -12
316 -12 323 0 343 4 411 80 24 26 49 66 55 88 17 54 17 570 0 624 -6 22 -31
62 -55 88 -68 76 -88 80 -413 80 -180 0 -288 -4 -309 -11 l-33 -12 -212 212
c-189 188 -216 211 -244 211 -22 0 -41 -9 -57 -25z m1150 -560 l25 -24 0 -271
0 -271 -25 -24 -24 -25 -271 0 -271 0 -24 25 -25 24 0 271 0 271 25 24 24 25
271 0 271 0 24 -25z"/>
</g>
</svg>
